<svg id="Quality" xmlns="http://www.w3.org/2000/svg" width="55.018" height="69.512" viewBox="0 0 55.018 69.512">
  <path id="Vector" d="M16.2,32.4A16.2,16.2,0,0,1,4.743,4.743,16.2,16.2,0,0,1,27.655,27.655,16.1,16.1,0,0,1,16.2,32.4Zm0-28.739A12.539,12.539,0,1,0,28.739,16.2,12.554,12.554,0,0,0,16.2,3.66Z" transform="translate(11.31 11.316)"/>
  <path id="Vector-2" data-name="Vector" d="M5.959,13.11,0,7.152,2.591,4.568,5.959,7.935,13.894,0l2.591,2.584Z" transform="translate(19.267 21.609)"/>
  <path id="Vector-3" data-name="Vector" d="M27.509,55.033a7.254,7.254,0,0,1-3.4-.849c-.22-.117-.432-.249-.637-.381a6.768,6.768,0,0,1-1.061-.878l-2.8-2.8a3.515,3.515,0,0,0-2.511-1.039H13.154a7.22,7.22,0,0,1-7.21-7.21V37.918A3.589,3.589,0,0,0,4.9,35.408l-2.8-2.8a7.219,7.219,0,0,1,0-10.2l2.8-2.8a3.576,3.576,0,0,0,1.039-2.511V13.154a7.22,7.22,0,0,1,7.21-7.21h3.953A3.527,3.527,0,0,0,19.618,4.9l2.8-2.8a7.21,7.21,0,0,1,10.19,0l2.8,2.8a3.515,3.515,0,0,0,2.511,1.039h3.953a7.22,7.22,0,0,1,7.21,7.21v3.953a3.527,3.527,0,0,0,1.039,2.511l2.8,2.8a7.219,7.219,0,0,1,0,10.2l-2.8,2.8a3.5,3.5,0,0,0-1.039,2.511v3.953a7.22,7.22,0,0,1-7.21,7.21H37.911A3.515,3.515,0,0,0,35.4,50.121l-2.8,2.8a7.177,7.177,0,0,1-1.069.878c-.2.132-.417.264-.637.381A7.126,7.126,0,0,1,27.509,55.033ZM13.147,9.611a3.554,3.554,0,0,0-3.55,3.55v3.953a7.153,7.153,0,0,1-2.108,5.095l-2.8,2.8a3.548,3.548,0,0,0,0,5.014l2.8,2.8A7.153,7.153,0,0,1,9.6,37.911v3.953a3.554,3.554,0,0,0,3.55,3.55H17.1a7.153,7.153,0,0,1,5.095,2.108l2.8,2.8a3.812,3.812,0,0,0,.527.439,2.617,2.617,0,0,0,.307.183,3.52,3.52,0,0,0,3.345,0,3.1,3.1,0,0,0,.307-.183,3.878,3.878,0,0,0,.534-.439l2.8-2.8A7.153,7.153,0,0,1,37.9,45.414h3.953a3.554,3.554,0,0,0,3.55-3.55V37.911a7.153,7.153,0,0,1,2.108-5.095l2.8-2.8a3.557,3.557,0,0,0,0-5.022l-2.8-2.8a7.153,7.153,0,0,1-2.108-5.095V13.154a3.554,3.554,0,0,0-3.55-3.55H37.9a7.13,7.13,0,0,1-5.095-2.116l-2.8-2.8a3.552,3.552,0,0,0-5.022,0l-2.8,2.8A7.153,7.153,0,0,1,17.1,9.6H13.147Z"/>
  <path id="Vector-4" data-name="Vector" d="M14.333,24.091,8.748,17.224,0,18.549,7.174,0h4.458a7.153,7.153,0,0,1,5.095,2.108l2.8,2.8a3.812,3.812,0,0,0,.527.439l1.208.813Zm-4.063-10.8,2.921,3.594,3.66-9.472L14.143,4.7A3.515,3.515,0,0,0,11.632,3.66H9.685L5.7,13.981Zm19.464,10.79L22.8,6.164l1.208-.813a3,3,0,0,0,.527-.439l2.8-2.8A7.153,7.153,0,0,1,32.428.007h4.465L44.06,18.557l-8.748-1.325ZM27.216,7.415l3.66,9.472L33.8,13.293l4.575.7L34.383,3.667H32.436a3.515,3.515,0,0,0-2.511,1.039Z" transform="translate(5.475 45.421)"/>
</svg>
